<svg width="62" height="62" viewBox="0 0 62 62" fill="none" xmlns="http://www.w3.org/2000/svg">
<path d="M55.8969 14.8704L32.5016 1.40474C32.1141 1.16255 31.5812 1.06567 31 1.06567C30.4188 1.06567 29.8859 1.21099 29.4984 1.40474L6.24844 14.9188C5.425 15.4032 4.84375 16.6141 4.84375 17.5344V44.5141C4.84375 45.0469 4.94062 45.6766 5.32812 46.2094L57.0594 16.1782C56.7688 15.5969 56.3328 15.161 55.8969 14.8704Z" fill="#659AD3"/>
<path d="M5.1828 46.1609C5.42499 46.5484 5.76405 46.8874 6.10311 47.0812L29.45 60.5953C29.8375 60.8375 30.3703 60.9343 30.9516 60.9343C31.5328 60.9343 32.0656 60.789 32.4531 60.5953L55.7031 47.0812C56.5266 46.5968 57.1078 45.3859 57.1078 44.4656V17.4859C57.1078 17.05 57.0594 16.5656 56.8172 16.1296L5.1828 46.1609Z" fill="#03599C"/>
<path d="M41.3172 36.8609C39.2828 40.4453 35.4078 42.8672 31 42.8672C24.4609 42.8672 19.1328 37.5391 19.1328 31C19.1328 24.4609 24.4609 19.1328 31 19.1328C35.4078 19.1328 39.2828 21.5547 41.3172 25.1875L47.6141 21.5547C44.3203 15.7906 38.1203 11.8672 31 11.8672C20.4406 11.8672 11.8672 20.4406 11.8672 31C11.8672 41.5594 20.4406 50.1328 31 50.1328C38.0719 50.1328 44.2719 46.2578 47.5656 40.5422L41.3172 36.8609Z" fill="white"/>
</svg>
