<svg width="62" height="62" viewBox="0 0 62 62" fill="none" xmlns="http://www.w3.org/2000/svg">
<path d="M9.11292 55.2782L4.24301 0.654785H57.7568L52.882 55.27L30.9674 61.3455L9.11292 55.2782V55.2782Z" fill="#1572B6"/>
<path d="M31.0005 56.7019L48.7088 51.7923L52.8749 5.12085H31.0005V56.7019Z" fill="#33A9DC"/>
<path d="M31.0005 24.9107H39.8655L40.4778 18.0505H31.0005V11.3511H47.7996L47.6388 13.1486L45.9919 31.6101H31.0005V24.9107Z" fill="white"/>
<path d="M31.0402 42.3096L31.0106 42.3183L23.5498 40.3038L23.0727 34.9607H16.3486L17.2868 45.4799L31.0097 49.2885L31.0402 49.2798V42.3096V42.3096Z" fill="#EBEBEB"/>
<path d="M39.2959 31.3269L38.4889 40.2985L31.017 42.3154V49.2856L44.7509 45.4794L44.8517 44.3474L46.0171 31.3269H39.2959Z" fill="white"/>
<path d="M31.0232 11.3511V18.0505H14.8412L14.707 16.545L14.4018 13.1486L14.2415 11.3511H31.0232V11.3511ZM31.0004 24.9116V31.611H23.6335L23.4994 30.1056L23.1937 26.7092L23.0339 24.9116H31.0004V24.9116Z" fill="#EBEBEB"/>
</svg>
