<svg width="62" height="63" viewBox="0 0 62 63" fill="none" xmlns="http://www.w3.org/2000/svg">
<path d="M22.0391 62.4844C27.8031 62.4844 32.4531 57.8344 32.4531 52.0703V41.6562H22.0391C16.275 41.6562 11.625 46.3063 11.625 52.0703C11.625 57.8344 16.275 62.4844 22.0391 62.4844Z" fill="#0ACF83"/>
<path d="M11.625 31.2422C11.625 25.4781 16.275 20.8281 22.0391 20.8281H32.4531V41.6562H22.0391C16.275 41.6562 11.625 37.0063 11.625 31.2422Z" fill="#A259FF"/>
<path d="M11.625 10.4141C11.625 4.65 16.275 0 22.0391 0H32.4531V20.8281H22.0391C16.275 20.8281 11.625 16.1781 11.625 10.4141Z" fill="#F24E1E"/>
<path d="M32.4531 0H42.8672C48.6313 0 53.2812 4.65 53.2812 10.4141C53.2812 16.1781 48.6313 20.8281 42.8672 20.8281H32.4531V0Z" fill="#FF7262"/>
<path d="M53.2812 31.2422C53.2812 37.0063 48.6313 41.6562 42.8672 41.6562C37.1031 41.6562 32.4531 37.0063 32.4531 31.2422C32.4531 25.4781 37.1031 20.8281 42.8672 20.8281C48.6313 20.8281 53.2812 25.4781 53.2812 31.2422Z" fill="#1ABCFE"/>
</svg>
