<svg width="62" height="62" viewBox="0 0 62 62" fill="none" xmlns="http://www.w3.org/2000/svg">
<path fill-rule="evenodd" clip-rule="evenodd" d="M31 2.47168C14.8475 2.47168 1.74956 15.5668 1.74956 31.7221C1.74956 44.6462 10.1307 55.61 21.7528 59.4783C23.2142 59.7495 23.7508 58.8437 23.7508 58.0711C23.7508 57.3736 23.7237 55.0695 23.7111 52.6253C15.5736 54.3947 13.8565 49.1741 13.8565 49.1741C12.5259 45.7932 10.6088 44.8942 10.6088 44.8942C7.9544 43.0788 10.8088 43.1166 10.8088 43.1166C13.7456 43.3224 15.2927 46.1308 15.2927 46.1308C17.9015 50.6016 22.1355 49.3093 23.8046 48.5624C24.0671 46.6719 24.8252 45.381 25.6617 44.6506C19.1648 43.9119 12.3346 41.4033 12.3346 30.1954C12.3346 27.0019 13.4777 24.3926 15.3489 22.3436C15.0447 21.6074 14.0435 18.6324 15.6317 14.6033C15.6317 14.6033 18.0875 13.8172 23.6772 17.6016C26.0109 16.953 28.5137 16.6271 31 16.6159C33.4848 16.6271 35.9891 16.9521 38.3271 17.6006C43.91 13.8162 46.3629 14.6024 46.3629 14.6024C47.9551 18.6309 46.9539 21.6064 46.6502 22.3427C48.5257 24.3916 49.6605 27.0009 49.6605 30.1944C49.6605 41.429 42.8178 43.9022 36.3044 44.6268C37.354 45.5346 38.2889 47.3151 38.2889 50.0436C38.2889 53.9574 38.255 57.1072 38.255 58.0707C38.255 58.8491 38.782 59.7611 40.2642 59.4739C51.8795 55.6018 60.2509 44.6414 60.2509 31.7221C60.2504 15.5677 47.1539 2.47216 31 2.47216V2.47168Z" fill="#181616"/>
<path d="M12.8282 44.4685C12.7638 44.6138 12.5351 44.6574 12.3269 44.5581C12.1137 44.4632 11.9951 44.2651 12.0638 44.1193C12.1268 43.9691 12.3559 43.928 12.5676 44.0282C12.7807 44.1237 12.9018 44.3237 12.8277 44.469L12.8282 44.4685ZM14.013 45.7904C13.874 45.9197 13.6012 45.8597 13.4162 45.6548C13.2244 45.4513 13.1886 45.1786 13.3305 45.0474C13.4748 44.9185 13.7393 44.9796 13.9311 45.183C14.122 45.3893 14.1597 45.6596 14.0135 45.7909L14.013 45.7904ZM15.1667 47.4746C14.9875 47.5995 14.694 47.4828 14.5128 47.2227C14.3336 46.9621 14.3336 46.6497 14.5177 46.5252C14.6984 46.4002 14.9875 46.5131 15.1716 46.7708C15.3498 47.0348 15.3498 47.3472 15.1667 47.4741V47.4746ZM16.7463 49.1026C16.5865 49.2793 16.2445 49.2319 15.9945 48.9911C15.7393 48.7553 15.6681 48.4196 15.8284 48.2433C15.9912 48.066 16.3346 48.1154 16.586 48.3547C16.8412 48.5901 16.9182 48.9262 16.7473 49.1021L16.7463 49.1026ZM18.926 50.0476C18.8548 50.2767 18.5264 50.3808 18.1946 50.283C17.8637 50.1827 17.6472 49.9148 17.715 49.6833C17.7829 49.4523 18.1137 49.3443 18.4474 49.4484C18.7782 49.5482 18.9948 49.8146 18.926 50.0476ZM21.3202 50.2224C21.3285 50.4636 21.0475 50.6632 20.7002 50.6681C20.35 50.6763 20.0667 50.4806 20.0633 50.2433C20.0633 49.9996 20.3384 49.8025 20.6881 49.7957C21.0354 49.7894 21.3207 49.9831 21.3207 50.2219L21.3202 50.2224ZM23.5474 49.8436C23.5891 50.0786 23.3474 50.3203 23.002 50.3847C22.6629 50.4477 22.3481 50.3014 22.3045 50.0684C22.2628 49.8272 22.5089 49.5855 22.848 49.523C23.1938 49.4634 23.5038 49.6053 23.5474 49.8441V49.8436Z" fill="#181616"/>
</svg>
