<svg width="62" height="62" viewBox="0 0 62 62" fill="none" xmlns="http://www.w3.org/2000/svg">
<path d="M9.22105 55.1586L4.37488 0.804443H57.6251L52.7736 55.1503L30.9676 61.1953L9.22105 55.1586Z" fill="#E44D26"/>
<path d="M31 56.5751L48.6206 51.6897L52.7664 5.24878H31V56.5751Z" fill="#F16529"/>
<path d="M31 25.4078H22.1786L21.5692 18.581H31V11.915H14.2837L14.4436 13.7034L16.0817 32.0742H31V25.4078ZM31 42.7208L30.9705 42.729L23.5464 40.7237L23.0722 35.4077H16.3796L17.3135 45.8746L30.9695 49.6653L31 49.6571V42.7208Z" fill="#EBEBEB"/>
<path d="M30.9767 25.4078V32.0742H39.1855L38.4119 40.7199L30.9767 42.7266V49.6624L44.6434 45.8746L44.7437 44.7484L46.3101 27.198L46.4724 25.4078H44.6763H30.9767ZM30.9767 11.915V18.581H47.0793L47.213 17.0833L47.5172 13.7034L47.6765 11.915H30.9767Z" fill="white"/>
</svg>
