<svg width="62" height="62" viewBox="0 0 62 62" fill="none" xmlns="http://www.w3.org/2000/svg">
<path d="M0.682007 0.681885H61.318V61.3184H0.682007V0.681885Z" fill="#F0DB4F"/>
<path d="M56.3556 46.8566C55.9114 44.0903 54.1076 41.7668 48.7644 39.6002C46.9083 38.7472 44.8391 38.1364 44.2225 36.7298C44.0035 35.9112 43.9745 35.4501 44.113 34.9545C44.5107 33.3464 46.4302 32.8451 47.9517 33.3062C48.9315 33.6346 49.8591 34.3898 50.4186 35.5944C53.0352 33.9001 53.0298 33.9112 54.8569 32.7468C54.188 31.7097 53.831 31.2312 53.3931 30.7875C51.8194 29.0297 49.6751 28.1244 46.2457 28.1936L44.4593 28.4247C42.7475 28.8572 41.1162 29.7557 40.1595 30.9604C37.2891 34.2173 38.1077 39.9174 41.6005 42.2633C45.0415 44.846 50.0965 45.4335 50.7421 47.8486C51.3704 50.8052 48.5692 51.7624 45.7851 51.4223C43.7332 50.9956 42.5921 49.9527 41.3583 48.0564C39.0876 49.3705 39.0876 49.3705 36.7529 50.7132C37.3066 51.9237 37.8883 52.4715 38.8163 53.5202C43.2087 57.9754 54.2001 57.7565 56.1715 51.013C56.2514 50.7815 56.7823 49.2373 56.3556 46.8566V46.8566ZM33.6456 28.5506H27.9741L27.9508 43.2136C27.9508 46.332 28.1121 49.1908 27.605 50.067C26.7753 51.7904 24.6251 51.5768 23.6452 51.2426C22.6479 50.7524 22.1408 50.0554 21.5532 49.0702C21.3919 48.7873 21.2708 48.5684 21.2301 48.5514L16.6189 51.3753C17.3857 52.9491 18.5152 54.315 19.9621 55.2024C22.1233 56.4995 25.0281 56.8972 28.0661 56.1997C30.0433 55.6238 31.7493 54.4308 32.6425 52.6149C33.9338 50.2342 33.6568 47.3526 33.6452 44.1654C33.6742 38.9657 33.6456 33.7669 33.6456 28.5506V28.5506Z" fill="#323330"/>
</svg>
