<svg width="62" height="62" viewBox="0 0 62 62" fill="none" xmlns="http://www.w3.org/2000/svg">
<path d="M31 16.0032C14.6572 16.0032 1.40759 22.7176 1.40759 30.9999C1.40759 39.2822 14.6572 45.9966 31 45.9966C47.3428 45.9966 60.5924 39.2822 60.5924 30.9999C60.5924 22.7176 47.3428 16.0032 31 16.0032ZM23.2999 33.9217C22.5937 34.5823 21.8095 34.855 20.9458 35.136C20.0822 35.4174 18.9831 35.3593 17.6467 35.3593H14.618L13.7785 40.203H10.2421L13.3978 23.7343H20.1984C22.2444 23.7343 23.7368 24.3228 24.675 25.3967C25.6133 26.4705 25.8952 27.9948 25.5212 29.9193C25.3667 30.7122 25.1066 31.4494 24.7395 32.1062C24.359 32.7839 23.873 33.3967 23.2999 33.9217ZM33.6224 35.3593L35.0179 28.3746C35.1768 27.557 35.1186 26.9496 34.843 26.6526C34.5669 26.3552 33.9799 26.1562 33.0823 26.1562H30.2778L28.4706 35.3593H24.9618L28.1175 19.3749H31.6263L30.7874 23.7343H33.913C35.8801 23.7343 37.2363 24.129 37.9827 24.8149C38.7292 25.5008 38.953 26.4405 38.6546 27.9769L37.1864 35.3593H33.6224ZM53.1229 29.9449C52.9688 30.7379 52.7082 31.4625 52.3416 32.1188C51.9744 32.7761 51.4949 33.3772 50.9025 33.9217C50.1963 34.5823 49.4116 34.855 48.5484 35.136C47.6853 35.4174 46.5853 35.3593 45.2489 35.3593H42.2201L41.3811 40.203H37.8447L40.9999 23.7343H47.801C49.847 23.7343 51.3394 24.3228 52.2771 25.3967C53.2144 26.4705 53.4968 28.021 53.1229 29.9449ZM46.4608 26.1562H44.0384L42.7175 32.9374H44.8691C46.2941 32.9374 47.3569 32.7969 48.0544 32.2593C48.7528 31.7226 49.2232 30.8895 49.4678 29.6335C49.7022 28.4269 49.5956 27.4858 49.1481 26.9898C48.7 26.4938 47.8044 26.1562 46.4608 26.1562ZM18.8587 26.1562H16.4358L15.1149 32.9374H17.266C18.6915 32.9374 19.7538 32.7969 20.4518 32.2593C21.1497 31.7226 21.6206 30.8895 21.8647 29.6335C22.0991 28.4269 21.9926 27.4858 21.545 26.9898C21.0974 26.4938 20.2023 26.1562 18.8587 26.1562Z" fill="#6181B6"/>
</svg>
