<svg width="62" height="62" viewBox="0 0 62 62" fill="none" xmlns="http://www.w3.org/2000/svg">
<path d="M30.705 5.93251C28.66 5.9422 26.708 6.11609 24.9894 6.42028C19.9277 7.31444 19.0093 9.18606 19.0093 12.6382V17.1967H30.97V18.7161H14.5201C11.0442 18.7161 8.00043 20.8052 7.04815 24.781C5.94958 29.3365 5.90115 32.1798 7.04815 36.9369C7.89823 40.4781 9.92873 43.0008 13.4051 43.0008H17.5179V37.536C17.5179 33.5879 20.9332 30.1057 24.9899 30.1057H36.937C40.2627 30.1057 42.9171 27.3671 42.9171 24.0278V12.6387C42.9171 9.39676 40.1823 6.96181 36.937 6.42076C34.8813 6.0788 32.7496 5.92331 30.705 5.93251ZM24.2367 9.59875C25.4718 9.59875 26.4813 10.6242 26.4813 11.8855C26.4813 13.1415 25.4723 14.1572 24.2367 14.1572C22.9967 14.1572 21.9926 13.1415 21.9926 11.8855C21.9921 10.6242 22.9967 9.59875 24.2367 9.59875Z" fill="url(#paint0_linear_2021_342)"/>
<path d="M44.4085 18.7163V24.028C44.4085 28.1452 40.9171 31.6109 36.9365 31.6109H24.9894C21.7169 31.6109 19.0093 34.412 19.0093 37.6893V49.0794C19.0093 52.3203 21.8274 54.2273 24.9894 55.1568C28.7753 56.2694 32.4061 56.4709 36.9365 55.1568C39.9474 54.2845 42.9166 52.53 42.9166 49.0794V44.5204H30.97V43.0004H48.8977C52.3735 43.0004 53.6697 40.5762 54.8787 36.9366C56.1274 33.1899 56.0737 29.5867 54.8787 24.7807C54.0194 21.3198 52.3789 18.7158 48.8977 18.7158H44.4085V18.7163ZM37.6887 47.5594C38.9292 47.5594 39.9333 48.5751 39.9333 49.8321C39.9333 51.0924 38.9287 52.1178 37.6887 52.1178C36.4536 52.1178 35.4446 51.0924 35.4446 49.8321C35.4446 48.5751 36.4536 47.5594 37.6887 47.5594Z" fill="url(#paint1_linear_2021_342)"/>
<path opacity="0.444" d="M47.134 57.9298C47.134 59.6459 39.9576 61.0375 31.1056 61.0375C22.2532 61.0375 15.0767 59.6459 15.0767 57.9298C15.0767 56.2131 22.2527 54.8215 31.1056 54.8215C39.9576 54.8215 47.134 56.2127 47.134 57.9298Z" fill="url(#paint2_radial_2021_342)"/>
<defs>
<linearGradient id="paint0_linear_2021_342" x1="5.00693" y1="7.35785" x2="32.5939" y2="30.8839" gradientUnits="userSpaceOnUse">
<stop stop-color="#5A9FD4"/>
<stop offset="1" stop-color="#306998"/>
</linearGradient>
<linearGradient id="paint1_linear_2021_342" x1="42.9732" y1="45.5082" x2="33.0801" y2="31.6347" gradientUnits="userSpaceOnUse">
<stop stop-color="#FFD43B"/>
<stop offset="1" stop-color="#FFE873"/>
</linearGradient>
<radialGradient id="paint2_radial_2021_342" cx="0" cy="0" r="1" gradientUnits="userSpaceOnUse" gradientTransform="translate(31.0408 57.8408) rotate(-90) scale(3.10887 13.6661)">
<stop stop-color="#B8B8B8" stop-opacity="0.498"/>
<stop offset="1" stop-color="#7F7F7F" stop-opacity="0"/>
</radialGradient>
</defs>
</svg>
