<svg width="62" height="62" viewBox="0 0 62 62" fill="none" xmlns="http://www.w3.org/2000/svg">
<path d="M31 36.5218C34.0496 36.5218 36.5219 34.0496 36.5219 30.9999C36.5219 27.9503 34.0496 25.478 31 25.478C27.9503 25.478 25.4781 27.9503 25.4781 30.9999C25.4781 34.0496 27.9503 36.5218 31 36.5218Z" fill="#61DAFB"/>
<path d="M51.9734 21.8937C50.9078 21.5062 49.7938 21.1187 48.6313 20.7796C48.9219 19.6171 49.1641 18.4546 49.3578 17.3405C50.375 10.9468 49.2609 6.44209 46.1609 4.69834C45.2406 4.16553 44.2234 3.92334 43.0609 3.92334C39.6703 3.92334 35.3594 6.44209 31 10.6562C26.6406 6.44209 22.3297 3.92334 18.9391 3.92334C17.7766 3.92334 16.7594 4.16553 15.8391 4.69834C12.7391 6.49053 11.625 10.9952 12.6422 17.3405C12.8359 18.4546 13.0781 19.6171 13.3688 20.7796C12.2063 21.1187 11.0922 21.4577 10.0266 21.8937C3.97188 24.2187 0.678131 27.4155 0.678131 30.9999C0.678131 34.5843 4.02032 37.7812 10.0266 40.1062C11.0922 40.4937 12.2063 40.8812 13.3688 41.2202C13.0781 42.3827 12.8359 43.5452 12.6422 44.6593C11.625 51.053 12.7391 55.5577 15.8391 57.3015C16.7594 57.8343 17.7766 58.0765 18.9391 58.0765C22.3781 58.0765 26.6891 55.5577 31 51.3437C35.3594 55.5577 39.6703 58.0765 43.0609 58.0765C44.2234 58.0765 45.2406 57.8343 46.1609 57.3015C49.2609 55.5093 50.375 51.0046 49.3578 44.6593C49.1641 43.5452 48.9219 42.3827 48.6313 41.2202C49.7938 40.8812 50.9078 40.5421 51.9734 40.1062C58.0281 37.7812 61.3219 34.5843 61.3219 30.9999C61.3219 27.4155 58.0281 24.2187 51.9734 21.8937ZM44.8047 7.12021C46.7906 8.28271 47.4688 11.8671 46.6453 16.953C46.5 17.9702 46.2578 19.0358 45.9672 20.1499C43.4484 19.5687 40.7844 19.1812 37.975 18.939C36.3281 16.614 34.6328 14.5312 32.9375 12.6421C36.5219 9.10615 40.1547 6.68428 43.1094 6.68428C43.7391 6.68428 44.3203 6.82959 44.8047 7.12021ZM39.3797 35.8437C38.5078 37.3937 37.4906 38.9437 36.425 40.4937C34.6328 40.639 32.8406 40.6874 31 40.6874C29.1109 40.6874 27.3188 40.639 25.575 40.4937C24.5094 38.9437 23.5406 37.3937 22.6688 35.8437C21.7484 34.2452 20.8766 32.5983 20.1016 30.9999C20.8766 29.4015 21.7484 27.7546 22.6688 26.1562C23.5406 24.6062 24.5578 23.0562 25.6234 21.5062C27.4156 21.3608 29.2078 21.3124 31.0484 21.3124C32.9375 21.3124 34.7297 21.3608 36.4734 21.5062C37.5391 23.0562 38.5078 24.6062 39.3797 26.1562C40.3 27.7546 41.1719 29.4015 41.9469 30.9999C41.1234 32.5983 40.3 34.1968 39.3797 35.8437ZM43.4 34.2452C44.1266 35.9405 44.7078 37.5874 45.2406 39.2343C43.5938 39.6218 41.85 39.9124 40.0094 40.1546C40.5906 39.2343 41.2203 38.2655 41.7531 37.2483C42.3344 36.2312 42.8672 35.214 43.4 34.2452ZM31 47.3718C29.8375 46.1124 28.7234 44.7562 27.6578 43.3515C28.7719 43.3999 29.8859 43.4483 31 43.4483C32.1141 43.4483 33.2281 43.3999 34.3422 43.3515C33.2766 44.7562 32.1625 46.1124 31 47.3718ZM21.9906 40.1062C20.15 39.864 18.4063 39.5733 16.7594 39.1858C17.2922 37.5874 17.8734 35.8921 18.6 34.1968C19.1328 35.1655 19.6656 36.1827 20.2469 37.1515C20.8281 38.2171 21.4094 39.1374 21.9906 40.1062ZM18.6 27.7546C17.8734 26.0593 17.2922 24.4124 16.7594 22.7655C18.4063 22.378 20.15 22.0874 21.9906 21.8452C21.4094 22.7655 20.7797 23.7343 20.2469 24.7515C19.6656 25.7687 19.1328 26.7858 18.6 27.7546ZM31 14.628C32.1625 15.8874 33.2766 17.2437 34.3422 18.6483C33.2281 18.5999 32.1141 18.5515 31 18.5515C29.8859 18.5515 28.7719 18.5999 27.6578 18.6483C28.7234 17.2437 29.8375 15.8874 31 14.628ZM41.7531 24.7999L40.0094 21.8937C41.85 22.1358 43.5938 22.4265 45.2406 22.814C44.7078 24.4124 44.1266 26.1077 43.4 27.803C42.8672 26.7858 42.3344 25.7687 41.7531 24.7999ZM15.3547 16.953C14.5313 11.8671 15.2094 8.28271 17.1953 7.12021C17.6797 6.82959 18.2609 6.68428 18.8906 6.68428C21.7969 6.68428 25.4297 9.05771 29.0625 12.6421C27.3672 14.4827 25.6719 16.614 24.025 18.939C21.2156 19.1812 18.5516 19.6171 16.0328 20.1499C15.7422 19.0358 15.5484 17.9702 15.3547 16.953ZM3.39063 30.9999C3.39063 28.7233 6.15157 26.3015 10.9953 24.5093C11.9641 24.1218 13.0297 23.7827 14.0953 23.4921C14.8703 25.914 15.8391 28.4812 17.0016 31.0483C15.8391 33.6155 14.8219 36.1343 14.0953 38.5562C7.41094 36.6187 3.39063 33.7124 3.39063 30.9999ZM17.1953 54.8796C15.2094 53.7171 14.5313 50.1327 15.3547 45.0468C15.5 44.0296 15.7422 42.964 16.0328 41.8499C18.5516 42.4312 21.2156 42.8187 24.025 43.0608C25.6719 45.3858 27.3672 47.4687 29.0625 49.3577C25.4781 52.8937 21.8453 55.3155 18.8906 55.3155C18.2609 55.3155 17.6797 55.1702 17.1953 54.8796ZM46.6453 45.0468C47.4688 50.1327 46.7906 53.7171 44.8047 54.8796C44.3203 55.1702 43.7391 55.3155 43.1094 55.3155C40.2031 55.3155 36.5703 52.9421 32.9375 49.3577C34.6328 47.5171 36.3281 45.3858 37.975 43.0608C40.7844 42.8187 43.4484 42.3827 45.9672 41.8499C46.2578 42.964 46.4516 44.0296 46.6453 45.0468ZM51.0047 37.4905C50.0359 37.878 48.9703 38.2171 47.9047 38.5077C47.1297 36.0858 46.1609 33.5187 44.9984 30.9515C46.1609 28.3843 47.1781 25.8655 47.9047 23.4437C54.5891 25.3812 58.6094 28.2874 58.6094 30.9999C58.6094 33.2765 55.8 35.6983 51.0047 37.4905Z" fill="#61DAFB"/>
</svg>
