<svg width="62" height="62" viewBox="0 0 62 62" fill="none" xmlns="http://www.w3.org/2000/svg">
<path d="M61.3291 35.0251L57.922 24.5398L51.1694 3.75867C50.8226 2.69014 49.3094 2.69014 48.9626 3.75867L42.2104 24.5398H19.7896L13.0374 3.75867C12.6901 2.69014 11.1774 2.69014 10.8301 3.75867L4.07843 24.5403L0.670855 35.0251C0.5193 35.4912 0.519218 35.9934 0.670622 36.4596C0.822025 36.9259 1.11714 37.3322 1.51367 37.6204L31 59.0423L60.4858 37.6199C60.8822 37.3317 61.1772 36.9254 61.3286 36.4593C61.48 35.9932 61.48 35.4912 61.3287 35.0251" fill="#FC6D26"/>
<path d="M31 59.0423L42.2104 24.5403H19.7896L31 59.0418V59.0423Z" fill="#E24329"/>
<path d="M31 59.0423L19.7896 24.5403H4.07843L31 59.0418V59.0423Z" fill="#FC6D26"/>
<path d="M4.07844 24.5398L0.670379 35.0251C0.518784 35.4912 0.518685 35.9933 0.670095 36.4594C0.821504 36.9256 1.11665 37.3318 1.51319 37.6199L31 59.0423L4.07844 24.5403V24.5398Z" fill="#FCA326"/>
<path d="M4.07843 24.5398H19.7896L13.0374 3.75867C12.6901 2.69014 11.1774 2.69014 10.8301 3.75867L4.07843 24.5403V24.5398Z" fill="#E24329"/>
<path d="M31 59.0423L42.2104 24.5403H57.922L31 59.0418V59.0423Z" fill="#FC6D26"/>
<path d="M57.9216 24.5398L61.3291 35.0251C61.4807 35.4912 61.4808 35.9933 61.3294 36.4594C61.178 36.9256 60.8829 37.3318 60.4863 37.6199L31 59.0423L57.9216 24.5403V24.5398Z" fill="#FCA326"/>
<path d="M57.9216 24.5398H42.2108L48.963 3.75916C49.3103 2.69063 50.823 2.69063 51.1703 3.75916L57.9225 24.5403L57.9216 24.5398Z" fill="#E24329"/>
</svg>
